# Blender v2.93.5 OBJ File: ''
# www.blender.org
mtllib plot-head.mtl
o tetepoteau
v 0.180000 -0.262486 0.791667
v 0.180000 -0.137138 0.923611
v 0.166298 -0.137138 0.992494
v 0.166298 -0.262486 0.860550
v 0.127279 -0.137138 1.050891
v 0.127279 -0.262486 0.918946
v 0.068883 -0.137138 1.089910
v 0.068883 -0.262486 0.957965
v 0.000000 -0.137138 1.103611
v 0.000000 -0.262486 0.971667
v -0.068883 -0.137138 1.089910
v -0.068883 -0.262486 0.957965
v -0.127279 -0.137138 1.050891
v -0.127279 -0.262486 0.918946
v -0.166298 -0.137138 0.992494
v -0.166298 -0.262486 0.860550
v -0.180000 -0.137138 0.923611
v -0.180000 -0.262486 0.791667
v -0.127279 -1.014572 0.127279
v -0.166298 -1.014572 0.068883
v -0.166298 -1.338984 0.068883
v -0.127279 -1.338984 0.127279
v 0.180000 -1.338984 -0.000000
v 0.166298 -1.338984 0.068883
v 0.127279 -1.338984 0.127279
v 0.068883 -1.338984 0.166298
v 0.000000 -1.338984 0.180000
v -0.068883 -1.338984 0.166298
v -0.180000 -1.338984 -0.000000
v -0.068883 -1.014572 0.166298
v 0.000000 -1.014572 0.180000
v 0.068883 -1.014572 0.166298
v 0.127279 -1.014572 0.127279
v 0.166298 -1.014572 0.068883
v 0.180000 -1.014572 -0.000000
v -0.180000 -1.014572 -0.000000
v 0.180000 -0.262486 -0.791667
v 0.166298 -0.262486 -0.860550
v 0.166298 -0.137138 -0.992494
v 0.180000 -0.137138 -0.923611
v 0.127279 -0.262486 -0.918946
v 0.127279 -0.137138 -1.050891
v 0.068883 -0.262486 -0.957965
v 0.068883 -0.137138 -1.089910
v 0.000000 -0.262486 -0.971667
v 0.000000 -0.137138 -1.103611
v -0.068883 -0.262486 -0.957965
v -0.068883 -0.137138 -1.089910
v -0.127279 -0.262486 -0.918946
v -0.127279 -0.137138 -1.050891
v -0.166298 -0.262486 -0.860550
v -0.166298 -0.137138 -0.992494
v -0.180000 -0.262486 -0.791667
v -0.180000 -0.137138 -0.923611
v -0.127279 -1.014572 -0.127279
v -0.127279 -1.338984 -0.127279
v -0.166298 -1.338984 -0.068883
v -0.166298 -1.014572 -0.068883
v -0.068883 -1.338984 -0.166298
v 0.000000 -1.338984 -0.180000
v 0.068883 -1.338984 -0.166298
v 0.127279 -1.338984 -0.127279
v 0.166298 -1.338984 -0.068883
v -0.068883 -1.014572 -0.166298
v 0.000000 -1.014572 -0.180000
v 0.068883 -1.014572 -0.166298
v 0.127279 -1.014572 -0.127279
v 0.166298 -1.014572 -0.068883
v -0.180000 -0.889224 0.131944
v 0.180000 -0.889224 0.131944
v -0.180000 -0.763877 0.263889
v 0.180000 -0.763877 0.263889
v -0.180000 -0.638529 0.395833
v 0.180000 -0.638529 0.395833
v -0.180000 -0.513181 0.527778
v 0.180000 -0.513181 0.527778
v -0.180000 -0.387834 0.659722
v 0.180000 -0.387834 0.659722
v -0.166298 -0.889224 0.200828
v -0.166298 -0.763877 0.332772
v -0.166298 -0.638529 0.464716
v -0.166298 -0.513181 0.596661
v -0.166298 -0.387834 0.728605
v -0.127279 -0.889224 0.259224
v -0.127279 -0.763877 0.391168
v -0.127279 -0.638529 0.523113
v -0.127279 -0.513181 0.655057
v -0.127279 -0.387834 0.787002
v -0.068883 -0.889224 0.298243
v -0.068883 -0.763877 0.430187
v -0.068883 -0.638529 0.562132
v -0.068883 -0.513181 0.694076
v -0.068883 -0.387834 0.826021
v 0.000000 -0.889224 0.311944
v 0.000000 -0.763877 0.443889
v 0.000000 -0.638529 0.575833
v 0.000000 -0.513181 0.707778
v 0.000000 -0.387834 0.839722
v 0.068883 -0.889224 0.298243
v 0.068883 -0.763877 0.430187
v 0.068883 -0.638529 0.562132
v 0.068883 -0.513181 0.694076
v 0.068883 -0.387834 0.826021
v 0.127279 -0.889224 0.259224
v 0.127279 -0.763877 0.391168
v 0.127279 -0.638529 0.523113
v 0.127279 -0.513181 0.655057
v 0.127279 -0.387834 0.787002
v 0.166298 -0.889224 0.200828
v 0.166298 -0.763877 0.332772
v 0.166298 -0.638529 0.464716
v 0.166298 -0.513181 0.596661
v 0.166298 -0.387834 0.728605
v 0.180000 -0.889224 -0.131944
v -0.180000 -0.889224 -0.131944
v 0.180000 -0.763877 -0.263889
v -0.180000 -0.763877 -0.263889
v 0.180000 -0.638529 -0.395833
v -0.180000 -0.638529 -0.395833
v 0.180000 -0.513181 -0.527778
v -0.180000 -0.513181 -0.527778
v 0.180000 -0.387834 -0.659722
v -0.180000 -0.387834 -0.659722
v -0.166298 -0.889224 -0.200828
v -0.166298 -0.763877 -0.332772
v -0.166298 -0.638529 -0.464716
v -0.166298 -0.513181 -0.596661
v -0.166298 -0.387834 -0.728605
v -0.127279 -0.889224 -0.259224
v -0.127279 -0.763877 -0.391168
v -0.127279 -0.638529 -0.523113
v -0.127279 -0.513181 -0.655057
v -0.127279 -0.387834 -0.787002
v -0.068883 -0.889224 -0.298243
v -0.068883 -0.763877 -0.430187
v -0.068883 -0.638529 -0.562132
v -0.068883 -0.513181 -0.694076
v -0.068883 -0.387834 -0.826021
v 0.000000 -0.889224 -0.311944
v 0.000000 -0.763877 -0.443889
v 0.000000 -0.638529 -0.575833
v 0.000000 -0.513181 -0.707778
v 0.000000 -0.387834 -0.839722
v 0.068883 -0.889224 -0.298243
v 0.068883 -0.763877 -0.430187
v 0.068883 -0.638529 -0.562132
v 0.068883 -0.513181 -0.694076
v 0.068883 -0.387834 -0.826021
v 0.127279 -0.889224 -0.259224
v 0.127279 -0.763877 -0.391168
v 0.127279 -0.638529 -0.523113
v 0.127279 -0.513181 -0.655057
v 0.127279 -0.387834 -0.787002
v 0.166298 -0.889224 -0.200828
v 0.166298 -0.763877 -0.332772
v 0.166298 -0.638529 -0.464716
v 0.166298 -0.513181 -0.596661
v 0.166298 -0.387834 -0.728605
vt 0.750000 1.000000
vt 0.687500 0.928571
vt 0.750000 0.928571
vt 0.687500 1.000000
vt 0.625000 0.928571
vt 0.625000 1.000000
vt 0.562500 0.928571
vt 0.562500 1.000000
vt 0.500000 0.928571
vt 0.437500 1.000000
vt 0.437500 0.928571
vt 0.375000 1.000000
vt 0.375000 0.928571
vt 0.312500 1.000000
vt 0.312500 0.928571
vt 0.250000 1.000000
vt 0.250000 0.928571
vt 0.312500 0.500000
vt 0.375000 0.500000
vt 0.375000 0.500000
vt 0.312500 0.500000
vt 0.250000 0.500000
vt 0.687500 0.500000
vt 0.437500 0.500000
vt 0.437500 0.500000
vt 0.500000 0.500000
vt 0.500000 0.500000
vt 0.562500 0.500000
vt 0.562500 0.500000
vt 0.625000 0.500000
vt 0.625000 0.500000
vt 0.687500 0.500000
vt 0.750000 0.500000
vt 0.750000 0.500000
vt 0.250000 0.500000
vt 0.687500 0.928571
vt 0.750000 1.000000
vt 0.750000 0.928571
vt 0.625000 0.928571
vt 0.687500 1.000000
vt 0.562500 0.928571
vt 0.625000 1.000000
vt 0.500000 0.928571
vt 0.562500 1.000000
vt 0.437500 1.000000
vt 0.500000 1.000000
vt 0.437500 0.928571
vt 0.375000 1.000000
vt 0.375000 0.928571
vt 0.312500 1.000000
vt 0.312500 0.928571
vt 0.250000 1.000000
vt 0.375000 0.500000
vt 0.312500 0.500000
vt 0.375000 0.500000
vt 0.250000 0.928571
vt 0.500000 0.500000
vt 0.625000 0.500000
vt 0.437500 0.500000
vt 0.437500 0.500000
vt 0.500000 0.500000
vt 0.562500 0.500000
vt 0.562500 0.500000
vt 0.625000 0.500000
vt 0.687500 0.500000
vt 0.687500 0.500000
vt 0.312500 0.500000
vt 0.750000 0.571429
vt 0.250000 0.571429
vt 0.750000 0.642857
vt 0.250000 0.642857
vt 0.750000 0.714286
vt 0.250000 0.714286
vt 0.750000 0.785714
vt 0.250000 0.785714
vt 0.750000 0.857143
vt 0.250000 0.857143
vt 0.312500 0.571429
vt 0.312500 0.642857
vt 0.312500 0.714286
vt 0.312500 0.785714
vt 0.312500 0.857143
vt 0.375000 0.571429
vt 0.375000 0.642857
vt 0.375000 0.714286
vt 0.375000 0.785714
vt 0.375000 0.857143
vt 0.437500 0.571429
vt 0.437500 0.642857
vt 0.437500 0.714286
vt 0.437500 0.785714
vt 0.437500 0.857143
vt 0.500000 0.571429
vt 0.500000 0.642857
vt 0.500000 0.714286
vt 0.500000 0.785714
vt 0.500000 0.857143
vt 0.562500 0.571429
vt 0.562500 0.642857
vt 0.562500 0.714286
vt 0.562500 0.785714
vt 0.562500 0.857143
vt 0.625000 0.571429
vt 0.625000 0.642857
vt 0.625000 0.714286
vt 0.625000 0.785714
vt 0.625000 0.857143
vt 0.687500 0.571429
vt 0.687500 0.642857
vt 0.687500 0.714286
vt 0.687500 0.785714
vt 0.687500 0.857143
vt 0.750000 0.571429
vt 0.750000 0.642857
vt 0.250000 0.571429
vt 0.750000 0.714286
vt 0.250000 0.642857
vt 0.750000 0.785714
vt 0.250000 0.714286
vt 0.750000 0.857143
vt 0.250000 0.785714
vt 0.250000 0.857143
vt 0.312500 0.571429
vt 0.312500 0.642857
vt 0.312500 0.714286
vt 0.312500 0.785714
vt 0.312500 0.857143
vt 0.375000 0.571429
vt 0.375000 0.642857
vt 0.375000 0.714286
vt 0.375000 0.785714
vt 0.375000 0.857143
vt 0.437500 0.571429
vt 0.437500 0.642857
vt 0.437500 0.714286
vt 0.437500 0.785714
vt 0.437500 0.857143
vt 0.500000 0.571429
vt 0.500000 0.642857
vt 0.500000 0.714286
vt 0.500000 0.785714
vt 0.500000 0.857143
vt 0.562500 0.571429
vt 0.562500 0.642857
vt 0.562500 0.714286
vt 0.562500 0.785714
vt 0.562500 0.857143
vt 0.625000 0.571429
vt 0.625000 0.642857
vt 0.625000 0.714286
vt 0.625000 0.785714
vt 0.625000 0.857143
vt 0.687500 0.571429
vt 0.687500 0.642857
vt 0.687500 0.714286
vt 0.687500 0.785714
vt 0.687500 0.857143
vt 0.500000 1.000000
vn 0.9607 -0.2012 0.1911
vn 0.8650 -0.3638 0.3456
vn 0.7992 -0.4358 0.4140
vn 0.5777 -0.5918 0.5622
vn 0.5209 -0.6189 0.5879
vn 0.2799 -0.6960 0.6612
vn 0.2522 -0.7016 0.6665
vn 0.0000 -0.7250 0.6888
vn -0.2522 -0.7016 0.6665
vn -0.2799 -0.6960 0.6612
vn -0.5209 -0.6189 0.5879
vn -0.5777 -0.5918 0.5622
vn -0.7992 -0.4358 0.4140
vn -0.8650 -0.3638 0.3456
vn -0.9607 -0.2012 0.1911
vn -0.9304 -0.1516 0.3338
vn -0.7071 -0.0000 0.7071
vn 0.0000 1.0000 0.0000
vn 0.0000 0.7250 -0.6888
vn 0.0000 -1.0000 0.0000
vn -0.3827 -0.0000 0.9239
vn -0.0000 -0.0000 1.0000
vn 0.3827 -0.0000 0.9239
vn 0.7071 -0.0000 0.7071
vn 0.9239 -0.0000 0.3827
vn 0.9304 -0.1516 0.3338
vn 0.9808 -0.0000 0.1951
vn 0.9786 -0.0670 0.1947
vn 0.0000 0.0000 -1.0000
vn -0.9786 -0.0670 0.1947
vn -0.9239 -0.0000 0.3827
vn 0.8650 -0.3638 -0.3456
vn 0.9607 -0.2012 -0.1911
vn 0.5777 -0.5918 -0.5622
vn 0.7992 -0.4358 -0.4140
vn 0.2799 -0.6960 -0.6612
vn 0.5209 -0.6189 -0.5879
vn -0.0000 -0.7250 -0.6888
vn 0.2522 -0.7016 -0.6665
vn -0.2522 -0.7016 -0.6665
vn -0.2799 -0.6960 -0.6612
vn -0.5209 -0.6189 -0.5879
vn -0.5777 -0.5918 -0.5622
vn -0.7992 -0.4358 -0.4140
vn -0.8650 -0.3638 -0.3456
vn -0.9607 -0.2012 -0.1911
vn -0.7071 0.0000 -0.7071
vn -0.9304 -0.1516 -0.3337
vn 0.0000 0.7250 0.6888
vn -0.3827 0.0000 -0.9239
vn 0.3827 0.0000 -0.9239
vn 0.7071 0.0000 -0.7071
vn 0.9239 0.0000 -0.3827
vn 0.9304 -0.1516 -0.3338
vn 0.9808 0.0000 -0.1951
vn 0.9786 -0.0670 -0.1947
vn -0.9239 0.0000 -0.3827
vn -0.9786 -0.0670 -0.1947
vn 0.0000 0.7250 -0.6887
vn -0.6246 -0.5662 0.5379
vn -0.3031 -0.6909 0.6563
vn 0.0000 -0.7250 0.6887
vn 0.3031 -0.6909 0.6563
vn 0.6246 -0.5662 0.5379
vn -0.9304 -0.1516 -0.3338
vn -0.6246 -0.5662 -0.5379
vn -0.3031 -0.6909 -0.6563
vn 0.0000 -0.7250 -0.6887
vn 0.3031 -0.6909 -0.6563
vn 0.6246 -0.5662 -0.5379
vn -0.9808 0.0000 0.1951
vn -0.9808 0.0000 -0.1951
usemtl Material.003
s 1
f 2/1/1 4/2/2 1/3/1
f 3/4/3 6/5/4 4/2/2
f 5/6/5 8/7/6 6/5/4
f 7/8/7 10/9/8 8/7/6
f 10/9/8 11/10/9 12/11/10
f 12/11/10 13/12/11 14/13/12
f 14/13/12 15/14/13 16/15/14
f 16/15/14 17/16/15 18/17/15
f 20/18/16 22/19/17 19/20/17
f 2/1/18 15/14/18 11/10/18
f 18/17/19 2/1/19 1/3/19
f 21/21/20 29/22/20 24/23/20
f 19/20/17 28/24/21 30/25/21
f 30/25/21 27/26/22 31/27/22
f 31/27/22 26/28/23 32/29/23
f 32/29/23 25/30/24 33/31/24
f 33/31/24 24/23/25 34/32/26
f 34/32/26 23/33/27 35/34/28
f 35/34/29 29/22/29 36/35/29
f 36/35/30 21/21/31 20/18/16
f 38/36/32 40/37/33 37/38/33
f 41/39/34 39/40/35 38/36/32
f 43/41/36 42/42/37 41/39/34
f 45/43/38 44/44/39 43/41/36
f 45/43/38 48/45/40 46/46/38
f 47/47/41 50/48/42 48/45/40
f 49/49/43 52/50/44 50/48/42
f 51/51/45 54/52/46 52/50/44
f 56/53/47 58/54/48 55/55/47
f 42/42/18 46/46/18 50/48/18
f 40/37/49 53/56/49 37/38/49
f 56/53/20 60/57/20 62/58/20
f 59/59/50 55/55/47 64/60/50
f 60/57/29 64/60/50 65/61/29
f 61/62/51 65/61/29 66/63/51
f 62/58/52 66/63/51 67/64/52
f 63/65/53 67/64/52 68/66/54
f 23/33/55 68/66/54 35/34/56
f 57/67/57 36/35/58 58/54/48
f 36/35/19 70/68/19 35/34/19
f 69/69/59 72/70/59 70/68/19
f 71/71/59 74/72/19 72/70/59
f 73/73/19 76/74/19 74/72/19
f 75/75/59 78/76/19 76/74/19
f 77/77/19 1/3/19 78/76/19
f 20/18/16 69/69/15 36/35/30
f 79/78/14 71/71/15 69/69/15
f 80/79/14 73/73/15 71/71/15
f 81/80/14 75/75/15 73/73/15
f 82/81/14 77/77/15 75/75/15
f 83/82/14 18/17/15 77/77/15
f 19/20/60 79/78/14 20/18/16
f 84/83/12 80/79/14 79/78/14
f 85/84/12 81/80/14 80/79/14
f 86/85/12 82/81/14 81/80/14
f 87/86/12 83/82/14 82/81/14
f 88/87/12 16/15/14 83/82/14
f 30/25/61 84/83/12 19/20/60
f 89/88/10 85/84/12 84/83/12
f 90/89/10 86/85/12 85/84/12
f 91/90/10 87/86/12 86/85/12
f 92/91/10 88/87/12 87/86/12
f 93/92/10 14/13/12 88/87/12
f 31/27/8 89/88/10 30/25/61
f 94/93/8 90/89/10 89/88/10
f 95/94/62 91/90/10 90/89/10
f 96/95/8 92/91/10 91/90/10
f 97/96/62 93/92/10 92/91/10
f 98/97/8 12/11/10 93/92/10
f 99/98/6 31/27/8 32/29/63
f 100/99/6 94/93/8 99/98/6
f 101/100/6 95/94/62 100/99/6
f 102/101/6 96/95/8 101/100/6
f 103/102/6 97/96/62 102/101/6
f 8/7/6 98/97/8 103/102/6
f 104/103/4 32/29/63 33/31/64
f 105/104/4 99/98/6 104/103/4
f 106/105/4 100/99/6 105/104/4
f 107/106/4 101/100/6 106/105/4
f 108/107/4 102/101/6 107/106/4
f 6/5/4 103/102/6 108/107/4
f 109/108/2 33/31/64 34/32/26
f 110/109/2 104/103/4 109/108/2
f 111/110/2 105/104/4 110/109/2
f 112/111/2 106/105/4 111/110/2
f 113/112/2 107/106/4 112/111/2
f 4/2/2 108/107/4 113/112/2
f 70/68/1 34/32/26 35/34/28
f 72/70/1 109/108/2 70/68/1
f 74/72/1 110/109/2 72/70/1
f 76/74/1 111/110/2 74/72/1
f 78/76/1 112/111/2 76/74/1
f 1/3/1 113/112/2 78/76/1
f 114/113/49 36/35/49 35/34/49
f 116/114/49 115/115/49 114/113/49
f 118/116/49 117/117/49 116/114/49
f 120/118/49 119/119/49 118/116/49
f 122/120/49 121/121/49 120/118/49
f 37/38/49 123/122/49 122/120/49
f 58/54/65 115/115/46 124/123/45
f 124/123/45 117/117/46 125/124/45
f 125/124/45 119/119/46 126/125/45
f 126/125/45 121/121/46 127/126/45
f 127/126/45 123/122/46 128/127/45
f 128/127/45 53/56/46 51/51/45
f 55/55/66 124/123/45 129/128/43
f 129/128/43 125/124/45 130/129/43
f 130/129/43 126/125/45 131/130/43
f 131/130/43 127/126/45 132/131/43
f 132/131/43 128/127/45 133/132/43
f 133/132/43 51/51/45 49/49/43
f 64/60/67 129/128/43 134/133/41
f 134/133/41 130/129/43 135/134/41
f 135/134/41 131/130/43 136/135/41
f 136/135/41 132/131/43 137/136/41
f 137/136/41 133/132/43 138/137/41
f 138/137/41 49/49/43 47/47/41
f 65/61/38 134/133/41 139/138/38
f 139/138/38 135/134/41 140/139/68
f 140/139/68 136/135/41 141/140/38
f 141/140/38 137/136/41 142/141/68
f 142/141/68 138/137/41 143/142/38
f 143/142/38 47/47/41 45/43/38
f 65/61/38 144/143/36 66/63/69
f 139/138/38 145/144/36 144/143/36
f 140/139/68 146/145/36 145/144/36
f 141/140/38 147/146/36 146/145/36
f 142/141/68 148/147/36 147/146/36
f 143/142/38 43/41/36 148/147/36
f 66/63/69 149/148/34 67/64/70
f 144/143/36 150/149/34 149/148/34
f 145/144/36 151/150/34 150/149/34
f 146/145/36 152/151/34 151/150/34
f 147/146/36 153/152/34 152/151/34
f 148/147/36 41/39/34 153/152/34
f 67/64/70 154/153/32 68/66/54
f 149/148/34 155/154/32 154/153/32
f 150/149/34 156/155/32 155/154/32
f 151/150/34 157/156/32 156/155/32
f 152/151/34 158/157/32 157/156/32
f 153/152/34 38/36/32 158/157/32
f 68/66/54 114/113/33 35/34/56
f 154/153/32 116/114/33 114/113/33
f 155/154/32 118/116/33 116/114/33
f 156/155/32 120/118/33 118/116/33
f 157/156/32 122/120/33 120/118/33
f 158/157/32 37/38/33 122/120/33
f 2/1/1 3/4/3 4/2/2
f 3/4/3 5/6/5 6/5/4
f 5/6/5 7/8/7 8/7/6
f 7/8/7 9/158/8 10/9/8
f 10/9/8 9/158/8 11/10/9
f 12/11/10 11/10/9 13/12/11
f 14/13/12 13/12/11 15/14/13
f 16/15/14 15/14/13 17/16/15
f 20/18/16 21/21/31 22/19/17
f 5/6/18 3/4/18 7/8/18
f 3/4/18 2/1/18 7/8/18
f 2/1/18 17/16/18 15/14/18
f 15/14/18 13/12/18 11/10/18
f 11/10/18 9/158/18 2/1/18
f 9/158/18 7/8/18 2/1/18
f 18/17/19 17/16/19 2/1/19
f 29/22/20 23/33/20 24/23/20
f 24/23/20 25/30/20 28/24/20
f 25/30/20 26/28/20 28/24/20
f 26/28/20 27/26/20 28/24/20
f 28/24/20 22/19/20 24/23/20
f 22/19/20 21/21/20 24/23/20
f 19/20/17 22/19/17 28/24/21
f 30/25/21 28/24/21 27/26/22
f 31/27/22 27/26/22 26/28/23
f 32/29/23 26/28/23 25/30/24
f 33/31/24 25/30/24 24/23/25
f 34/32/26 24/23/25 23/33/27
f 35/34/29 23/33/29 29/22/29
f 36/35/30 29/22/71 21/21/31
f 38/36/32 39/40/35 40/37/33
f 41/39/34 42/42/37 39/40/35
f 43/41/36 44/44/39 42/42/37
f 45/43/38 46/46/38 44/44/39
f 45/43/38 47/47/41 48/45/40
f 47/47/41 49/49/43 50/48/42
f 49/49/43 51/51/45 52/50/44
f 51/51/45 53/56/46 54/52/46
f 56/53/47 57/67/57 58/54/48
f 40/37/18 39/40/18 54/52/18
f 39/40/18 42/42/18 54/52/18
f 42/42/18 44/44/18 46/46/18
f 46/46/18 48/45/18 50/48/18
f 50/48/18 52/50/18 42/42/18
f 52/50/18 54/52/18 42/42/18
f 40/37/49 54/52/49 53/56/49
f 63/65/20 23/33/20 29/22/20
f 29/22/20 57/67/20 56/53/20
f 56/53/20 59/59/20 60/57/20
f 60/57/20 61/62/20 62/58/20
f 62/58/20 63/65/20 29/22/20
f 29/22/20 56/53/20 62/58/20
f 59/59/50 56/53/47 55/55/47
f 60/57/29 59/59/50 64/60/50
f 61/62/51 60/57/29 65/61/29
f 62/58/52 61/62/51 66/63/51
f 63/65/53 62/58/52 67/64/52
f 23/33/55 63/65/53 68/66/54
f 57/67/57 29/22/72 36/35/58
f 36/35/19 69/69/59 70/68/19
f 69/69/59 71/71/59 72/70/59
f 71/71/59 73/73/19 74/72/19
f 73/73/19 75/75/59 76/74/19
f 75/75/59 77/77/19 78/76/19
f 77/77/19 18/17/19 1/3/19
f 20/18/16 79/78/14 69/69/15
f 79/78/14 80/79/14 71/71/15
f 80/79/14 81/80/14 73/73/15
f 81/80/14 82/81/14 75/75/15
f 82/81/14 83/82/14 77/77/15
f 83/82/14 16/15/14 18/17/15
f 19/20/60 84/83/12 79/78/14
f 84/83/12 85/84/12 80/79/14
f 85/84/12 86/85/12 81/80/14
f 86/85/12 87/86/12 82/81/14
f 87/86/12 88/87/12 83/82/14
f 88/87/12 14/13/12 16/15/14
f 30/25/61 89/88/10 84/83/12
f 89/88/10 90/89/10 85/84/12
f 90/89/10 91/90/10 86/85/12
f 91/90/10 92/91/10 87/86/12
f 92/91/10 93/92/10 88/87/12
f 93/92/10 12/11/10 14/13/12
f 31/27/8 94/93/8 89/88/10
f 94/93/8 95/94/62 90/89/10
f 95/94/62 96/95/8 91/90/10
f 96/95/8 97/96/62 92/91/10
f 97/96/62 98/97/8 93/92/10
f 98/97/8 10/9/8 12/11/10
f 99/98/6 94/93/8 31/27/8
f 100/99/6 95/94/62 94/93/8
f 101/100/6 96/95/8 95/94/62
f 102/101/6 97/96/62 96/95/8
f 103/102/6 98/97/8 97/96/62
f 8/7/6 10/9/8 98/97/8
f 104/103/4 99/98/6 32/29/63
f 105/104/4 100/99/6 99/98/6
f 106/105/4 101/100/6 100/99/6
f 107/106/4 102/101/6 101/100/6
f 108/107/4 103/102/6 102/101/6
f 6/5/4 8/7/6 103/102/6
f 109/108/2 104/103/4 33/31/64
f 110/109/2 105/104/4 104/103/4
f 111/110/2 106/105/4 105/104/4
f 112/111/2 107/106/4 106/105/4
f 113/112/2 108/107/4 107/106/4
f 4/2/2 6/5/4 108/107/4
f 70/68/1 109/108/2 34/32/26
f 72/70/1 110/109/2 109/108/2
f 74/72/1 111/110/2 110/109/2
f 76/74/1 112/111/2 111/110/2
f 78/76/1 113/112/2 112/111/2
f 1/3/1 4/2/2 113/112/2
f 114/113/49 115/115/49 36/35/49
f 116/114/49 117/117/49 115/115/49
f 118/116/49 119/119/49 117/117/49
f 120/118/49 121/121/49 119/119/49
f 122/120/49 123/122/49 121/121/49
f 37/38/49 53/56/49 123/122/49
f 58/54/65 36/35/58 115/115/46
f 124/123/45 115/115/46 117/117/46
f 125/124/45 117/117/46 119/119/46
f 126/125/45 119/119/46 121/121/46
f 127/126/45 121/121/46 123/122/46
f 128/127/45 123/122/46 53/56/46
f 55/55/66 58/54/65 124/123/45
f 129/128/43 124/123/45 125/124/45
f 130/129/43 125/124/45 126/125/45
f 131/130/43 126/125/45 127/126/45
f 132/131/43 127/126/45 128/127/45
f 133/132/43 128/127/45 51/51/45
f 64/60/67 55/55/66 129/128/43
f 134/133/41 129/128/43 130/129/43
f 135/134/41 130/129/43 131/130/43
f 136/135/41 131/130/43 132/131/43
f 137/136/41 132/131/43 133/132/43
f 138/137/41 133/132/43 49/49/43
f 65/61/38 64/60/67 134/133/41
f 139/138/38 134/133/41 135/134/41
f 140/139/68 135/134/41 136/135/41
f 141/140/38 136/135/41 137/136/41
f 142/141/68 137/136/41 138/137/41
f 143/142/38 138/137/41 47/47/41
f 65/61/38 139/138/38 144/143/36
f 139/138/38 140/139/68 145/144/36
f 140/139/68 141/140/38 146/145/36
f 141/140/38 142/141/68 147/146/36
f 142/141/68 143/142/38 148/147/36
f 143/142/38 45/43/38 43/41/36
f 66/63/69 144/143/36 149/148/34
f 144/143/36 145/144/36 150/149/34
f 145/144/36 146/145/36 151/150/34
f 146/145/36 147/146/36 152/151/34
f 147/146/36 148/147/36 153/152/34
f 148/147/36 43/41/36 41/39/34
f 67/64/70 149/148/34 154/153/32
f 149/148/34 150/149/34 155/154/32
f 150/149/34 151/150/34 156/155/32
f 151/150/34 152/151/34 157/156/32
f 152/151/34 153/152/34 158/157/32
f 153/152/34 41/39/34 38/36/32
f 68/66/54 154/153/32 114/113/33
f 154/153/32 155/154/32 116/114/33
f 155/154/32 156/155/32 118/116/33
f 156/155/32 157/156/32 120/118/33
f 157/156/32 158/157/32 122/120/33
f 158/157/32 38/36/32 37/38/33
